<mxfile host="app.diagrams.net" modified="2024-04-01T08:15:12.903Z" agent="Mozilla/5.0 (Windows NT 10.0; Win64; x64) AppleWebKit/537.36 (KHTML, like Gecko) Chrome/123.0.0.0 Safari/537.36" etag="KrpG-eossH2XE54lndTV" version="24.2.1" type="github">
  <diagram name="Page-1" id="fu2fMV-L6i4KWlRdfJtE">
    <mxGraphModel dx="2440" dy="1332" grid="1" gridSize="10" guides="1" tooltips="1" connect="1" arrows="1" fold="1" page="1" pageScale="1" pageWidth="827" pageHeight="1169" math="0" shadow="0">
      <root>
        <mxCell id="0" />
        <mxCell id="1" parent="0" />
        <mxCell id="mlouHhY-SC-koA-eOmkY-2" value="Texte saisie par l&#39;utilisateur" style="rounded=1;whiteSpace=wrap;html=1;" vertex="1" parent="1">
          <mxGeometry x="270" y="90" width="120" height="60" as="geometry" />
        </mxCell>
        <mxCell id="mlouHhY-SC-koA-eOmkY-3" value="Décomposition du texte en mot dans un tableau (words)" style="rounded=0;whiteSpace=wrap;html=1;" vertex="1" parent="1">
          <mxGeometry x="270" y="170" width="120" height="60" as="geometry" />
        </mxCell>
        <mxCell id="mlouHhY-SC-koA-eOmkY-5" value="Transformation du tableau de mot en son équivalent RegExp (reList)" style="rounded=0;whiteSpace=wrap;html=1;" vertex="1" parent="1">
          <mxGeometry x="270" y="250" width="120" height="60" as="geometry" />
        </mxCell>
        <mxCell id="mlouHhY-SC-koA-eOmkY-6" value="Parcourir chaque Recette (recipe)" style="rounded=0;whiteSpace=wrap;html=1;" vertex="1" parent="1">
          <mxGeometry x="270" y="330" width="120" height="60" as="geometry" />
        </mxCell>
        <mxCell id="mlouHhY-SC-koA-eOmkY-7" value="reList.length = 0 ?" style="rhombus;whiteSpace=wrap;html=1;" vertex="1" parent="1">
          <mxGeometry x="270" y="410" width="120" height="120" as="geometry" />
        </mxCell>
        <mxCell id="mlouHhY-SC-koA-eOmkY-8" value="recipe.showBySearch = true" style="rounded=0;whiteSpace=wrap;html=1;" vertex="1" parent="1">
          <mxGeometry x="456" y="440" width="130" height="60" as="geometry" />
        </mxCell>
        <mxCell id="mlouHhY-SC-koA-eOmkY-10" value="Parcourir chaque expression RegExp (re)" style="rounded=0;whiteSpace=wrap;html=1;" vertex="1" parent="1">
          <mxGeometry x="270" y="550" width="120" height="60" as="geometry" />
        </mxCell>
        <mxCell id="mlouHhY-SC-koA-eOmkY-11" value="re valide pour recipe.name ?" style="rhombus;whiteSpace=wrap;html=1;" vertex="1" parent="1">
          <mxGeometry x="270" y="630" width="120" height="120" as="geometry" />
        </mxCell>
        <mxCell id="mlouHhY-SC-koA-eOmkY-12" value="re valide pour recipe.description ?" style="rhombus;whiteSpace=wrap;html=1;" vertex="1" parent="1">
          <mxGeometry x="270" y="770" width="120" height="120" as="geometry" />
        </mxCell>
        <mxCell id="mlouHhY-SC-koA-eOmkY-13" value="re valide pour au moins un des ingrédients ?" style="rhombus;whiteSpace=wrap;html=1;" vertex="1" parent="1">
          <mxGeometry x="270" y="910" width="120" height="120" as="geometry" />
        </mxCell>
        <mxCell id="mlouHhY-SC-koA-eOmkY-14" value="" style="endArrow=classic;html=1;rounded=0;exitX=0.5;exitY=0;exitDx=0;exitDy=0;entryX=1;entryY=0.5;entryDx=0;entryDy=0;" edge="1" parent="1" source="mlouHhY-SC-koA-eOmkY-8" target="mlouHhY-SC-koA-eOmkY-6">
          <mxGeometry width="50" height="50" relative="1" as="geometry">
            <mxPoint x="246" y="500" as="sourcePoint" />
            <mxPoint x="436" y="330" as="targetPoint" />
            <Array as="points">
              <mxPoint x="521" y="360" />
            </Array>
          </mxGeometry>
        </mxCell>
        <mxCell id="mlouHhY-SC-koA-eOmkY-15" value="" style="endArrow=classic;html=1;rounded=0;entryX=-0.021;entryY=0.501;entryDx=0;entryDy=0;entryPerimeter=0;exitX=1;exitY=0.5;exitDx=0;exitDy=0;" edge="1" parent="1" source="mlouHhY-SC-koA-eOmkY-7" target="mlouHhY-SC-koA-eOmkY-8">
          <mxGeometry width="50" height="50" relative="1" as="geometry">
            <mxPoint x="246" y="540" as="sourcePoint" />
            <mxPoint x="296" y="490" as="targetPoint" />
          </mxGeometry>
        </mxCell>
        <mxCell id="mlouHhY-SC-koA-eOmkY-16" value="" style="endArrow=classic;html=1;rounded=0;entryX=0.5;entryY=0;entryDx=0;entryDy=0;exitX=0.5;exitY=1;exitDx=0;exitDy=0;" edge="1" parent="1" source="mlouHhY-SC-koA-eOmkY-11" target="mlouHhY-SC-koA-eOmkY-12">
          <mxGeometry width="50" height="50" relative="1" as="geometry">
            <mxPoint x="246" y="640" as="sourcePoint" />
            <mxPoint x="296" y="590" as="targetPoint" />
          </mxGeometry>
        </mxCell>
        <mxCell id="mlouHhY-SC-koA-eOmkY-17" value="" style="endArrow=classic;html=1;rounded=0;entryX=0.5;entryY=0;entryDx=0;entryDy=0;exitX=0.5;exitY=1;exitDx=0;exitDy=0;" edge="1" parent="1" source="mlouHhY-SC-koA-eOmkY-10" target="mlouHhY-SC-koA-eOmkY-11">
          <mxGeometry width="50" height="50" relative="1" as="geometry">
            <mxPoint x="246" y="640" as="sourcePoint" />
            <mxPoint x="296" y="590" as="targetPoint" />
          </mxGeometry>
        </mxCell>
        <mxCell id="mlouHhY-SC-koA-eOmkY-18" value="" style="endArrow=classic;html=1;rounded=0;entryX=0.5;entryY=0;entryDx=0;entryDy=0;exitX=0.5;exitY=1;exitDx=0;exitDy=0;" edge="1" parent="1" source="mlouHhY-SC-koA-eOmkY-7" target="mlouHhY-SC-koA-eOmkY-10">
          <mxGeometry width="50" height="50" relative="1" as="geometry">
            <mxPoint x="246" y="640" as="sourcePoint" />
            <mxPoint x="296" y="590" as="targetPoint" />
          </mxGeometry>
        </mxCell>
        <mxCell id="mlouHhY-SC-koA-eOmkY-19" value="" style="endArrow=classic;html=1;rounded=0;entryX=0.5;entryY=0;entryDx=0;entryDy=0;exitX=0.5;exitY=1;exitDx=0;exitDy=0;" edge="1" parent="1" source="mlouHhY-SC-koA-eOmkY-12" target="mlouHhY-SC-koA-eOmkY-13">
          <mxGeometry width="50" height="50" relative="1" as="geometry">
            <mxPoint x="246" y="880" as="sourcePoint" />
            <mxPoint x="296" y="830" as="targetPoint" />
          </mxGeometry>
        </mxCell>
        <mxCell id="mlouHhY-SC-koA-eOmkY-20" value="recipe.showBySearch = false" style="rounded=0;whiteSpace=wrap;html=1;" vertex="1" parent="1">
          <mxGeometry x="270" y="1050" width="130" height="60" as="geometry" />
        </mxCell>
        <mxCell id="mlouHhY-SC-koA-eOmkY-21" value="" style="endArrow=none;html=1;rounded=0;exitX=1;exitY=0.5;exitDx=0;exitDy=0;" edge="1" parent="1" source="mlouHhY-SC-koA-eOmkY-20">
          <mxGeometry width="50" height="50" relative="1" as="geometry">
            <mxPoint x="586" y="970" as="sourcePoint" />
            <mxPoint x="506" y="360" as="targetPoint" />
            <Array as="points">
              <mxPoint x="616" y="1080" />
              <mxPoint x="616" y="360" />
            </Array>
          </mxGeometry>
        </mxCell>
        <mxCell id="mlouHhY-SC-koA-eOmkY-22" value="" style="endArrow=classic;html=1;rounded=0;exitX=0.5;exitY=1;exitDx=0;exitDy=0;entryX=0.462;entryY=-0.017;entryDx=0;entryDy=0;entryPerimeter=0;" edge="1" parent="1" source="mlouHhY-SC-koA-eOmkY-13" target="mlouHhY-SC-koA-eOmkY-20">
          <mxGeometry width="50" height="50" relative="1" as="geometry">
            <mxPoint x="-64" y="720" as="sourcePoint" />
            <mxPoint x="330" y="1040" as="targetPoint" />
          </mxGeometry>
        </mxCell>
        <mxCell id="mlouHhY-SC-koA-eOmkY-23" value="" style="endArrow=classic;html=1;rounded=0;exitX=0.5;exitY=1;exitDx=0;exitDy=0;" edge="1" parent="1" source="mlouHhY-SC-koA-eOmkY-2">
          <mxGeometry width="50" height="50" relative="1" as="geometry">
            <mxPoint x="436" y="160" as="sourcePoint" />
            <mxPoint x="330" y="170" as="targetPoint" />
          </mxGeometry>
        </mxCell>
        <mxCell id="mlouHhY-SC-koA-eOmkY-24" value="" style="endArrow=classic;html=1;rounded=0;entryX=0.5;entryY=0;entryDx=0;entryDy=0;exitX=0.5;exitY=1;exitDx=0;exitDy=0;" edge="1" parent="1" source="mlouHhY-SC-koA-eOmkY-3" target="mlouHhY-SC-koA-eOmkY-5">
          <mxGeometry width="50" height="50" relative="1" as="geometry">
            <mxPoint x="146" y="310" as="sourcePoint" />
            <mxPoint x="196" y="260" as="targetPoint" />
          </mxGeometry>
        </mxCell>
        <mxCell id="mlouHhY-SC-koA-eOmkY-25" value="" style="endArrow=classic;html=1;rounded=0;entryX=0.5;entryY=0;entryDx=0;entryDy=0;exitX=0.5;exitY=1;exitDx=0;exitDy=0;" edge="1" parent="1" source="mlouHhY-SC-koA-eOmkY-5" target="mlouHhY-SC-koA-eOmkY-6">
          <mxGeometry width="50" height="50" relative="1" as="geometry">
            <mxPoint x="146" y="350" as="sourcePoint" />
            <mxPoint x="196" y="300" as="targetPoint" />
          </mxGeometry>
        </mxCell>
        <mxCell id="mlouHhY-SC-koA-eOmkY-26" value="" style="endArrow=classic;html=1;rounded=0;entryX=0.5;entryY=0;entryDx=0;entryDy=0;exitX=0.5;exitY=1;exitDx=0;exitDy=0;" edge="1" parent="1" source="mlouHhY-SC-koA-eOmkY-6" target="mlouHhY-SC-koA-eOmkY-7">
          <mxGeometry width="50" height="50" relative="1" as="geometry">
            <mxPoint x="146" y="350" as="sourcePoint" />
            <mxPoint x="196" y="300" as="targetPoint" />
          </mxGeometry>
        </mxCell>
        <mxCell id="mlouHhY-SC-koA-eOmkY-27" value="" style="endArrow=classic;html=1;rounded=0;entryX=0.543;entryY=1.001;entryDx=0;entryDy=0;exitX=1;exitY=0.5;exitDx=0;exitDy=0;entryPerimeter=0;" edge="1" parent="1" source="mlouHhY-SC-koA-eOmkY-13" target="mlouHhY-SC-koA-eOmkY-8">
          <mxGeometry width="50" height="50" relative="1" as="geometry">
            <mxPoint x="-194" y="750" as="sourcePoint" />
            <mxPoint x="-144" y="700" as="targetPoint" />
            <Array as="points">
              <mxPoint x="526" y="970" />
            </Array>
          </mxGeometry>
        </mxCell>
        <mxCell id="mlouHhY-SC-koA-eOmkY-29" value="" style="endArrow=none;html=1;rounded=0;entryX=1;entryY=0.5;entryDx=0;entryDy=0;" edge="1" parent="1" target="mlouHhY-SC-koA-eOmkY-12">
          <mxGeometry width="50" height="50" relative="1" as="geometry">
            <mxPoint x="526" y="830" as="sourcePoint" />
            <mxPoint x="46" y="670" as="targetPoint" />
          </mxGeometry>
        </mxCell>
        <mxCell id="mlouHhY-SC-koA-eOmkY-30" value="" style="endArrow=none;html=1;rounded=0;entryX=1;entryY=0.5;entryDx=0;entryDy=0;" edge="1" parent="1">
          <mxGeometry width="50" height="50" relative="1" as="geometry">
            <mxPoint x="526" y="689.86" as="sourcePoint" />
            <mxPoint x="390" y="689.86" as="targetPoint" />
          </mxGeometry>
        </mxCell>
      </root>
    </mxGraphModel>
  </diagram>
</mxfile>
